# xmcd
#
# Track frame offsets:
#	150
#	6623
#	25551
#	43348
#	63167
#	81171
#	98459
#	117822
#	134553
#	155744
#	175991
#	197599
#	215340
#
# Disc length: 2955 seconds
#
# Revision: 3
# Processed by: cddbd v1.5.2PL0 Copyright (c) Steve Scherf et al.
# Submitted via: EZCDAudioConverter 8.0.2.1
#
DISCID=ad0b890d
DTITLE=Hồ Ngọc Hà - Vol 04. Khi Ta Yêu Nhau
DYEAR=2008
DGENRE=R&B
TTITLE0=Hồ Ngọc Hà - Intro
TTITLE1=Hồ Ngọc Hà - Một ngày giá băng
TTITLE2=Hồ Ngọc Hà - Chỉ tại vô tình
TTITLE3=Hồ Ngọc Hà - Có bao giờ
TTITLE4=Hồ Ngọc Hà - Em vẫn muốn yêu anh
TTITLE5=Hồ Ngọc Hà, Lệ Quyên - Vì anh đánh mất
TTITLE6=Hồ Ngọc Hà - Khi Ta Yêu Nhau
TTITLE7=Hồ Ngọc Hà - Nụ hôn ngày mưa
TTITLE8=Hồ Ngọc Hà - Người yêu bé nhỏ 
TTITLE9=Hồ Ngọc Hà - Trót yêu anh rồi
TTITLE10=Hồ Ngọc Hà - Mãi như bây giờ
TTITLE11=Hồ Ngọc Hà - Không chờ đọi
TTITLE12=Hồ Ngọc Hà - Outro
EXTD=
EXTT0=
EXTT1=
EXTT2=
EXTT3=
EXTT4=
EXTT5=
EXTT6=
EXTT7=
EXTT8=
EXTT9=
EXTT10=
EXTT11=
EXTT12=
PLAYORDER=
